<svg xmlns="http://www.w3.org/2000/svg" width="1024" height="1024"><path d="M153.6 63.488V655.36c0 40.96 19.456 79.872 52.224 104.448l312.32 237.568 313.344-237.568c32.768-24.576 51.2-63.488 51.2-104.448V63.488H153.6zm584.704 56.32 9.216-25.6 9.216 25.6 26.624 1.024-21.504 16.384 8.192 26.624-22.528-15.36-22.528 15.36 7.168-26.624-21.504-16.384 27.648-1.024zm-262.144 0 8.192-25.6 9.216 25.6 27.648 1.024-21.504 16.384 7.168 26.624-22.528-15.36-21.504 15.36 7.168-26.624-21.504-16.384 27.648-1.024zm-263.168 0 9.216-25.6 9.216 25.6 27.648 1.024-21.504 16.384 7.168 26.624-22.528-15.36-22.528 15.36 8.192-26.624-21.504-16.384 26.624-1.024zm0 268.288 9.216-24.576 9.216 24.576 27.648 1.024-21.504 16.384 7.168 26.624-22.528-15.36-22.528 15.36 8.192-26.624-21.504-16.384 26.624-1.024zm-13.312 312.32 8.192-25.6-21.504-17.408h26.624l9.216-25.6 9.216 25.6h27.648l-21.504 17.408 7.168 25.6-22.528-15.36-22.528 15.36zm115.712 117.76-97.28-74.752 97.28-100.352v175.104zm46.08-339.968h26.624l9.216-25.6 9.216 25.6h27.648l-21.504 17.408 7.168 25.6-22.528-15.36-22.528 15.36 8.192-25.6-21.504-17.408zm113.664 460.8L385.024 870.4V572.416l90.112-92.16v458.752zM271.36 550.912V181.248h360.448L271.36 550.912zM563.2 299.008l9.216-25.6 9.216 25.6 26.624 1.024-21.504 16.384 8.192 25.6-22.528-15.36-22.528 15.36 8.192-25.6-21.504-16.384 26.624-1.024zm70.656 584.704-90.112 67.584V409.6l90.112-92.16v566.272zM793.6 762.88l-90.112 67.584v-583.68l90.112-92.16V762.88zM407.552 369.664c-3.072-8.192 1.024-8.192-7.168-18.432s-13.312-36.864-7.168-47.104c5.12-9.216 9.216-15.36-3.072-13.312-4.096-3.072-6.144-6.144-9.216-7.168s-6.144 1.024-9.216 1.024c-4.096-1.024-8.192-8.192-11.264-7.168l5.12-3.072 1.024 1.024c17.408-8.192 28.672-21.504 28.672-37.888 0-23.552-26.624-43.008-60.416-43.008s-60.416 19.456-60.416 43.008c0 22.528 22.528 40.96 52.224 44.032 1.024 1.024 1.024 2.048 1.024 3.072v115.712c0 7.168-2.048 11.264-7.168 11.264l-21.504 2.048c-8.192 0-12.288 5.12-6.144 6.144h98.304c6.144 0 8.192-1.024 8.192-2.048h1.024c1.024-3.072 1.024-5.12 0-7.168-4.096-11.264-5.12-17.408 1.024-26.624 10.24 2.048 12.288-7.168 6.144-14.336zM373.76 220.16c2.048 0 4.096 2.048 4.096 4.096s-2.048 4.096-4.096 4.096-4.096-2.048-4.096-4.096 2.048-4.096 4.096-4.096zm-74.752 9.216c-2.048 0-4.096-2.048-4.096-4.096 0-3.072 2.048-4.096 4.096-4.096s4.096 2.048 4.096 4.096-2.048 4.096-4.096 4.096zm26.624 22.528c0 2.048-2.048 4.096-4.096 4.096s-4.096-2.048-4.096-4.096 2.048-4.096 4.096-4.096 4.096 2.048 4.096 4.096zm-1.024-34.816c-2.048 0-4.096-1.024-4.096-4.096 0-2.048 2.048-4.096 4.096-4.096 3.072 0 4.096 2.048 4.096 4.096 0 3.072-1.024 4.096-4.096 4.096zm35.84 30.72c2.048 0 4.096 2.048 4.096 4.096S362.496 256 360.448 256s-4.096-2.048-4.096-4.096 2.048-4.096 4.096-4.096zm-21.504-15.36c0-2.048 2.048-4.096 4.096-4.096s4.096 2.048 4.096 4.096-2.048 4.096-4.096 4.096-4.096-2.048-4.096-4.096zm4.096 67.584v-15.36c0-1.024 0-3.072 1.024-4.096 4.096 0 9.216-1.024 12.288-2.048h4.096c-1.024 0-2.048 2.048-3.072 4.096-1.024 4.096 7.168 10.24 6.144 14.336-2.048 3.072-3.072 18.432-4.096 20.48 0 1.024-5.12 2.048-7.168-1.024-2.048-2.048-5.12-10.24-9.216-16.384zm33.792 112.64-23.552-1.024c-6.144 0-10.24-3.072-10.24-10.24v-54.272c3.072 2.048 7.168 3.072 10.24 3.072 3.072 8.192 7.168 16.384 14.336 24.576-2.048 11.264 1.024 19.456 9.216 25.6 5.12 4.096 3.072 9.216 0 12.288z"/></svg>