<svg xmlns="http://www.w3.org/2000/svg" width="1024" height="1024"><path d="M827.392 45.056H196.608c-82.944 0-149.504 67.584-149.504 150.528V829.44c0 82.944 66.56 150.528 149.504 150.528h630.784c82.944 0 149.504-67.584 149.504-150.528V195.584c0-82.944-66.56-150.528-149.504-150.528zM708.608 760.832c-37.888 27.648-95.232 40.96-173.056 40.96h-250.88v-578.56h226.304c81.92 0 140.288 12.288 176.128 36.864 36.864 23.552 55.296 62.464 55.296 116.736 0 27.648-7.168 52.224-20.48 71.68s-31.744 33.792-57.344 44.032c31.744 9.216 57.344 26.624 74.752 51.2 18.432 25.6 26.624 56.32 26.624 92.16 0 56.32-18.432 97.28-57.344 124.928zM592.896 568.32c-15.36-13.312-37.888-19.456-68.608-19.456H435.2v151.552h89.088c29.696 0 53.248-6.144 67.584-19.456 16.384-12.288 23.552-31.744 23.552-57.344 0-24.576-7.168-43.008-22.528-55.296zm-73.728-120.832c23.552 0 41.984-5.12 54.272-15.36s18.432-25.6 18.432-46.08c0-19.456-6.144-34.816-18.432-45.056-12.288-11.264-30.72-16.384-54.272-16.384H435.2v122.88h83.968z"/></svg>