<svg xmlns="http://www.w3.org/2000/svg" width="1024" height="1024"><path d="M509.952 0C359.424 1.024 211.968 68.608 113.664 190.464L271.36 433.152c39.936-113.664 153.6-186.368 273.408-174.08L968.704 281.6C925.696 195.584 858.112 120.832 768 68.608 687.104 21.504 598.016 0 509.952 0zM83.968 231.424C30.72 312.32 0 408.576 0 512c0 256 187.392 467.968 433.152 505.856l131.072-258.048C445.44 782.336 325.632 719.872 276.48 610.304L83.968 231.424zm906.24 96.256L701.44 343.04c77.824 91.136 83.968 226.304 13.312 324.608l-231.424 355.328c96.256 6.144 194.56-15.36 284.672-67.584 221.184-128 311.296-396.288 222.208-627.712zM512 338.944c-95.232 0-173.056 77.824-173.056 173.056S416.768 685.056 512 685.056 685.056 607.232 685.056 512 607.232 338.944 512 338.944z"/></svg>