<?xml version="1.0" encoding="UTF-8"?>
<svg viewBox="0 0 56 56" xmlns="http://www.w3.org/2000/svg">
<path d="m368.64 155.65v-37.888h55.296v-41.984h-97.28v117.76h97.28v-37.888h-55.296zm155.65-37.888h38.912v-41.984h-97.28v41.984c13.312 12.288 19.456 19.456 38.912 37.888h-38.912v37.888h97.28v-37.888l-38.912-37.888zm138.24 0h38.912v-41.984h-97.28v41.984c13.312 12.288 19.456 19.456 38.912 37.888h-38.912v37.888h97.28v-37.888l-38.912-37.888zm-463.87 132.1 58.368 642.05 257.02 68.608 257.02-68.608 58.368-642.05h-630.78zm512 130.05-8.192 77.824-188.42 80.896h182.27l-21.504 240.64-160.77 47.104-161.79-48.128-10.24-120.83h79.872l5.12 62.464 86.016 21.504 90.112-24.576 6.144-101.38-273.41-1.024-6.144-75.776 194.56-80.896h-200.7l-10.24-77.824h397.31z"/>
</svg>
