<svg xmlns="http://www.w3.org/2000/svg" width="878" height="1024"><path d="M838.656 217.088q16.384 16.384 27.648 43.008t11.264 51.2v657.408q0 23.552-15.36 38.912T823.296 1024h-768q-23.552 0-38.912-16.384T0 968.704V55.296q0-23.552 16.384-38.912T55.296 0h512q22.528 0 50.176 11.264t43.008 27.648zM584.704 77.824v215.04h215.04q-5.12-17.408-12.288-23.552l-179.2-179.2q-6.144-7.168-23.552-12.288zm220.16 873.472V365.568H567.296q-23.552 0-38.912-16.384T512 311.296V72.704H72.704v878.592h732.16zm-530.432-512q4.096-7.168 12.288-7.168t13.312 3.072l28.672 21.504q7.168 5.12 7.168 12.288t-3.072 13.312L228.352 621.568 332.8 760.832q4.096 6.144 3.072 13.312t-7.168 12.288l-28.672 21.504q-6.144 4.096-13.312 4.096t-12.288-7.168L145.408 632.832q-8.192-11.264 0-22.528zM732.16 610.304q8.192 11.264 0 22.528L603.136 804.864q-4.096 6.144-11.264 7.168t-14.336-4.096l-28.672-21.504q-6.144-5.12-7.168-12.288t3.072-13.312l104.448-139.264-104.448-139.264q-4.096-6.144-3.072-13.312t7.168-12.288l28.672-21.504q6.144-4.096 14.336-3.072t11.264 7.168zM377.856 874.496q-7.168-1.024-11.264-8.192t-3.072-13.312l78.848-475.136q1.024-7.168 7.168-11.264t14.336-3.072l35.84 5.12q7.168 2.048 11.264 8.192t3.072 13.312L435.2 865.28q-1.024 7.168-7.168 11.264t-13.312 3.072z"/></svg>