<svg xmlns="http://www.w3.org/2000/svg" width="1024" height="1024"><path d="M516.096 1010.688c-221.184 0-396.288-129.024-477.184-313.344-89.088-204.8-17.408-533.504 142.336-678.912l-6.144 159.744c8.192-9.216 69.632-12.288 79.872 1.024 32.768-63.488 139.264-111.616 225.28-112.64-32.768 26.624-108.544 126.976-101.376 178.176 40.96 13.312 105.472 13.312 139.264 15.36 10.24 6.144 8.192 40.96-12.288 69.632-27.648 36.864-99.328 50.176-99.328 50.176l8.192 108.544-78.848-38.912c-26.624 65.536 35.84 122.88 99.328 112.64 70.656-12.288 96.256-58.368 145.408-55.296 50.176 2.048 69.632 29.696 62.464 55.296-7.168 30.72-60.416 25.6-60.416 25.6-45.056 71.68-105.472 102.4-202.752 94.208C527.36 803.84 726.016 693.248 776.192 593.92c51.2-99.328 7.168-247.808-44.032-289.792 60.416 25.6 101.376 52.224 122.88 109.568C866.304 286.72 807.936 141.312 702.464 56.32 900.096 113.664 1020.928 266.24 1024 510.976s-216.064 499.712-507.904 499.712z"/></svg>