<svg xmlns="http://www.w3.org/2000/svg" width="1024" height="1024"><path d="M339.968 865.28q0-57.344-94.208-57.344-90.112 0-90.112 59.392 0 58.368 98.304 58.368 86.016 0 86.016-60.416zm-33.792-432.128q0-34.816-17.408-57.344t-50.176-23.552q-70.656 0-70.656 82.944 0 76.8 70.656 76.8 67.584 0 67.584-78.848zm153.6-184.32V363.52q-20.48 7.168-45.056 13.312 9.216 24.576 9.216 48.128 0 71.68-41.984 122.88t-112.64 64.512q-22.528 5.12-33.792 15.36t-11.264 33.792q0 17.408 13.312 28.672t32.768 18.432 45.056 12.288 49.152 15.36T409.6 757.76t32.768 35.84 13.312 56.32q0 174.08-207.872 174.08-38.912 0-73.728-7.168t-66.56-23.552-50.176-47.104-18.432-72.704q0-94.208 104.448-128V742.4q-38.912-22.528-38.912-71.68 0-62.464 35.84-77.824v-3.072q-40.96-13.312-67.584-61.44t-27.648-95.232q0-78.848 54.272-132.096t134.144-52.224q55.296 0 102.4 26.624 55.296 0 123.904-26.624zm182.272 502.784H515.072q2.048-25.6 2.048-75.776V327.68q0-54.272-2.048-73.728h126.976q-3.072 19.456-3.072 70.656V675.84q0 50.176 3.072 75.776zm343.04-126.976v112.64q-40.96 22.528-99.328 22.528-35.84 0-61.44-12.288t-39.936-27.648-22.528-45.056-10.24-52.224-2.048-59.392V362.496h1.024v-2.048h-11.264q-7.168 0-10.24-1.024-12.288 0-33.792 3.072V253.952h55.296v-43.008q0-30.72-4.096-51.2h130.048q-3.072 23.552-3.072 94.208h97.28v108.544q-8.192 0-24.576-1.024t-24.576-1.024h-48.128v208.896q0 74.752 49.152 74.752 34.816 0 62.464-19.456zM656.384 83.968q0 32.768-22.528 58.368t-55.296 24.576q-32.768 0-55.296-24.576t-23.552-58.368q0-33.792 22.528-58.368T578.56 0q33.792 0 55.296 25.6t22.528 58.368z"/></svg>