<svg xmlns="http://www.w3.org/2000/svg" width="950" height="1024"><path d="M365.568 695.296q0 22.528-7.168 46.08t-24.576 44.032-40.96 19.456-41.984-19.456-24.576-44.032-7.168-46.08 7.168-47.104 24.576-44.032 41.984-19.456 40.96 19.456 24.576 44.032 7.168 47.104zm365.568 0q0 22.528-7.168 46.08t-24.576 44.032-40.96 19.456-41.984-19.456-24.576-44.032-7.168-46.08 7.168-47.104 24.576-44.032 41.984-19.456 40.96 19.456 24.576 44.032 7.168 47.104zm92.16 0q0-68.608-39.936-116.736t-106.496-48.128q-23.552 0-111.616 12.288-40.96 6.144-90.112 6.144t-89.088-6.144q-87.04-12.288-111.616-12.288-67.584 0-106.496 48.128T128 695.296q0 50.176 18.432 87.04t46.08 59.392 69.632 33.792 79.872 17.408 84.992 4.096h96.256q47.104 0 84.992-4.096t79.872-17.408 70.656-33.792 46.08-59.392 18.432-87.04zm128-101.376q0 118.784-34.816 189.44-22.528 44.032-60.416 75.776t-80.896 49.152-97.28 27.648-98.304 12.288-95.232 3.072q-44.032 0-80.896-2.048t-83.968-7.168-87.04-17.408-78.848-29.696-68.608-46.08T35.84 783.36Q0 712.704 0 593.92q0-135.168 77.824-226.304-15.36-46.08-15.36-97.28 0-65.536 28.672-123.904 62.464 0 108.544 22.528t108.544 70.656q83.968-20.48 176.128-20.48 84.992 0 160.768 18.432 59.392-47.104 106.496-68.608t107.52-22.528q29.696 58.368 29.696 123.904 0 50.176-15.36 96.256 77.824 91.136 77.824 227.328z"/></svg>