<svg xmlns="http://www.w3.org/2000/svg" width="716" height="1024"><path d="M0 205.824h715.776l-67.584 727.04-290.816 82.944L66.56 932.864zm66.56-61.44V8.192h46.08v45.056h40.96V8.192h45.056v136.192H153.6V99.328h-40.96v45.056H66.56zm66.56 209.92 24.576 272.384 1.024-2.048h307.2l-10.24 115.712L357.376 768l-99.328-28.672-6.144-69.632h-90.112L174.08 808.96l183.296 52.224 183.296-52.224 25.6-273.408H239.616l-8.192-91.136h343.04l8.192-90.112H133.12zm86.016-300.032V8.192h124.928v46.08h-39.936v90.112h-45.056V54.272h-39.936zm144.384 90.112V8.192h48.128l27.648 47.104 28.672-47.104h48.128v136.192h-44.032V74.752l-32.768 51.2v-1.024L408.576 76.8v67.584H363.52zm176.128 0V8.192h45.056v90.112h63.488v46.08H539.648z"/></svg>