<svg xmlns="http://www.w3.org/2000/svg" width="967" height="1024"><path d="M864.256 0c-82.944 1.024-185.344 47.104-287.744 108.544C331.776 72.704 66.56 214.016 55.296 503.808c61.44-95.232 229.376-263.168 375.808-308.224v13.312c-183.296 92.16-584.704 626.688-368.64 791.552 92.16 70.656 317.44-37.888 352.256-77.824 29.696 5.12 60.416 8.192 91.136 8.192 205.824 0 379.904-126.976 434.176-299.008H631.808c-13.312 57.344-57.344 94.208-123.904 94.208-104.448 0-129.024-69.632-129.024-154.624h574.464C983.04 362.496 836.608 177.152 640 121.856 818.176 4.096 1011.712-43.008 946.176 228.352h20.48c35.84-111.616 21.504-195.584-38.912-218.112C909.312 3.072 889.856 0 868.352 0h-4.096zM503.808 310.272c80.896 0 131.072 49.152 131.072 132.096H376.832c0-78.848 47.104-132.096 126.976-132.096zM128 742.4c59.392 84.992 152.576 148.48 262.144 175.104-78.848 59.392-231.424 86.016-272.384 53.248C68.608 929.792 80.896 843.776 128 742.4z"/></svg>