<svg xmlns="http://www.w3.org/2000/svg" width="1024" height="1024"><path d="M0 0v1024h1024V0H0zm557.056 798.72c0 99.328-58.368 145.408-143.36 145.408-76.8 0-121.856-39.936-144.384-88.064l78.848-48.128c14.336 26.624 28.672 50.176 61.44 50.176 31.744 0 51.2-12.288 51.2-60.416v-327.68h96.256V798.72zm227.328 145.408c-89.088 0-146.432-43.008-175.104-98.304l78.848-46.08c20.48 33.792 47.104 58.368 94.208 58.368 39.936 0 65.536-19.456 65.536-47.104 0-32.768-25.6-45.056-69.632-63.488l-24.576-11.264c-69.632-28.672-115.712-66.56-115.712-144.384 0-72.704 55.296-126.976 141.312-126.976 61.44 0 105.472 20.48 137.216 76.8l-75.776 48.128c-16.384-29.696-33.792-40.96-61.44-40.96s-46.08 17.408-46.08 40.96c0 28.672 18.432 39.936 59.392 58.368l23.552 10.24c81.92 34.816 128 70.656 128 151.552 0 86.016-67.584 134.144-159.744 134.144z"/></svg>