<svg xmlns="http://www.w3.org/2000/svg" width="1024" height="1024"><path d="M234.496 840.704V614.4c12.288 1.024 26.624 1.024 41.984 1.024 95.232 0 172.032-24.576 222.208-71.68 40.96-38.912 63.488-97.28 63.488-163.84 0-65.536-26.624-123.904-73.728-160.768S373.76 163.84 279.552 163.84c-80.896 0-149.504 5.12-203.776 14.336-5.12 0-8.192 4.096-8.192 8.192v654.336a9.178 9.178 0 0 0 9.216 9.216h148.48a9.178 9.178 0 0 0 9.216-9.216zm0-360.448V299.008c9.216-1.024 26.624-4.096 53.248-4.096 68.608 0 107.52 32.768 107.52 88.064 0 62.464-45.056 99.328-119.808 99.328-17.408 0-30.72-1.024-40.96-2.048zM831.488 537.6c-61.44-21.504-71.68-30.72-71.68-46.08 0-25.6 29.696-29.696 48.128-29.696 37.888 0 76.8 14.336 99.328 25.6 3.072 2.048 6.144 2.048 8.192 1.024 3.072-1.024 5.12-3.072 5.12-6.144L947.2 378.88c1.024-4.096-1.024-8.192-5.12-10.24-26.624-14.336-77.824-28.672-139.264-28.672-120.832 0-204.8 68.608-204.8 165.888-1.024 48.128 23.552 113.664 142.336 153.6 58.368 19.456 64.512 29.696 64.512 46.08 0 8.192 0 31.744-54.272 31.744-40.96 0-96.256-18.432-123.904-34.816-3.072-2.048-6.144-2.048-8.192-1.024-3.072 1.024-5.12 3.072-6.144 6.144l-25.6 107.52c-1.024 4.096 0 8.192 4.096 10.24 40.96 21.504 99.328 34.816 159.744 34.816 134.144 0 218.112-63.488 218.112-164.864-1.024-76.8-44.032-124.928-137.216-157.696z"/></svg>