<svg xmlns="http://www.w3.org/2000/svg" width="1024" height="1024"><path d="M310.272 311.296h-2.048c-65.536 0-98.304 33.792-98.304 101.376v3.072c0 66.56 32.768 100.352 98.304 100.352h2.048c65.536 0 98.304-33.792 98.304-100.352v-3.072c0-67.584-32.768-101.376-98.304-101.376zm62.464 104.448c0 46.08-17.408 64.512-62.464 64.512h-2.048c-45.056 0-62.464-18.432-62.464-64.512v-3.072c0-47.104 17.408-64.512 62.464-64.512h2.048c45.056 0 62.464 17.408 62.464 64.512v3.072zm-25.6-3.072v2.048c0 32.768-15.36 46.08-45.056 46.08h-1.024C271.36 460.8 256 447.488 256 414.72v-2.048c0-32.768 14.336-46.08 45.056-46.08h1.024c29.696 0 45.056 13.312 45.056 46.08zm372.736-101.376c-65.536 0-98.304 33.792-98.304 101.376v3.072c0 66.56 32.768 100.352 98.304 100.352h2.048c65.536 0 98.304-33.792 98.304-100.352v-3.072c0-67.584-32.768-101.376-98.304-101.376h-2.048zm64.512 101.376v3.072c0 46.08-17.408 64.512-62.464 64.512h-2.048c-45.056 0-62.464-18.432-62.464-64.512v-3.072c0-47.104 17.408-64.512 62.464-64.512h2.048c45.056 0 62.464 17.408 62.464 64.512zm-55.296-46.08h1.024c29.696 0 45.056 13.312 45.056 47.104v1.024c0 32.768-15.36 46.08-45.056 46.08h-1.024c-30.72 0-45.056-13.312-45.056-46.08v-1.024c0-33.792 14.336-47.104 45.056-47.104zm-7.168 504.832c-41.984 30.72-108.544 36.864-201.728 36.864h-6.144c-93.184 0-159.744-6.144-201.728-35.84h6.144c53.248 0 80.896-54.272 105.472-103.424s48.128-95.232 93.184-95.232c43.008 0 62.464 44.032 84.992 91.136 22.528 51.2 51.2 113.664 119.808 106.496zm303.104-598.016c-13.312-91.136-139.264-101.376-241.664-110.592-32.768-2.048-64.512-5.12-84.992-10.24-49.152-18.432-108.544-27.648-177.152-27.648h-8.192c-62.464 0-116.736 7.168-162.816 22.528-2.048 0-3.072 0-5.12 1.024l-12.288 3.072c-20.48 6.144-53.248 8.192-88.064 11.264-101.376 9.216-227.328 19.456-240.64 110.592-6.144 40.96 3.072 94.208 23.552 138.24 22.528 51.2 56.32 82.944 91.136 88.064h6.144c8.192 0 14.336-2.048 20.48-5.12v20.48c0 158.72 44.032 266.24 137.216 324.608h3.072c59.392 25.6 82.944-14.336 116.736-81.92 25.6-51.2 54.272-109.568 114.688-109.568 58.368 0 83.968 56.32 106.496 106.496 32.768 69.632 55.296 110.592 123.904 84.992h3.072c93.184-58.368 138.24-165.888 138.24-324.608V496.64c4.096 2.048 9.216 3.072 14.336 3.072h6.144c35.84-5.12 69.632-36.864 92.16-88.064 20.48-44.032 28.672-97.28 23.552-138.24zM520.192 500.736h-6.144c-15.36 0-29.696 0-44.032 1.024 4.096-20.48 17.408-28.672 45.056-28.672h2.048c26.624 0 39.936 8.192 45.056 28.672-13.312-1.024-27.648-1.024-41.984-1.024zm331.776 14.336c0 120.832-26.624 207.872-83.968 263.168 1.024-9.216 2.048-19.456 2.048-29.696v-48.128c0-116.736-57.344-177.152-171.008-194.56-5.12-45.056-33.792-68.608-81.92-68.608h-2.048c-49.152 0-76.8 23.552-81.92 68.608-112.64 18.432-168.96 78.848-168.96 194.56v48.128c0 10.24 0 20.48 1.024 29.696-57.344-55.296-83.968-142.336-83.968-263.168v-12.288c0-236.544 102.4-342.016 331.776-342.016h8.192c57.344 0 106.496 7.168 148.48 20.48 0 0 1.024 1.024 2.048 1.024 4.096 1.024 8.192 3.072 13.312 4.096C799.744 230.4 851.968 332.8 851.968 502.784v12.288zM692.224 280.576c-74.752 0-97.28-12.288-117.76-23.552-13.312-7.168-24.576-13.312-57.344-13.312-34.816 0-45.056 6.144-59.392 13.312-20.48 11.264-43.008 23.552-116.736 23.552-10.24 0-17.408-8.192-17.408-17.408 0-10.24 7.168-18.432 17.408-18.432 64.512 0 81.92-9.216 99.328-19.456 16.384-8.192 33.792-17.408 76.8-17.408s59.392 9.216 74.752 17.408c17.408 9.216 34.816 19.456 100.352 19.456a18.355 18.355 0 0 1 18.432 18.432c0 9.216-8.192 17.408-18.432 17.408z"/></svg>