<svg xmlns="http://www.w3.org/2000/svg" width="1024" height="1024"><path d="M841.728 556.032c-31.744 1.024-58.368 8.192-81.92 19.456-8.192-16.384-16.384-31.744-18.432-41.984-1.024-13.312-3.072-21.504-1.024-35.84 2.048-15.36 10.24-36.864 10.24-38.912s-2.048-9.216-20.48-10.24c-17.408 0-33.792 4.096-35.84 9.216-1.024 4.096-5.12 15.36-7.168 26.624-3.072 16.384-36.864 75.776-55.296 106.496-6.144-11.264-11.264-22.528-12.288-30.72-2.048-13.312-4.096-20.48-2.048-35.84s11.264-36.864 11.264-38.912c-1.024-1.024-2.048-9.216-20.48-9.216s-33.792 3.072-35.84 8.192-4.096 16.384-8.192 26.624c-3.072 11.264-48.128 109.568-59.392 135.168-5.12 13.312-10.24 24.576-14.336 30.72-4.096 7.168 0 1.024-1.024 2.048-3.072 6.144-4.096 9.216-4.096 9.216-3.072 4.096-6.144 8.192-7.168 8.192s-2.048-11.264 1.024-27.648c6.144-33.792 22.528-88.064 21.504-89.088 0-1.024 3.072-11.264-10.24-15.36-12.288-5.12-17.408 3.072-18.432 3.072s-2.048 3.072-2.048 3.072 14.336-60.416-27.648-60.416c-25.6 0-61.44 28.672-79.872 54.272-11.264 6.144-35.84 19.456-60.416 33.792-10.24 5.12-20.48 11.264-29.696 16.384l-2.048-2.048c-51.2-54.272-144.384-93.184-140.288-165.888 1.024-25.6 10.24-95.232 179.2-180.224 139.264-68.608 250.88-50.176 269.312-8.192 27.648 60.416-59.392 173.056-202.752 188.416-55.296 6.144-83.968-14.336-91.136-22.528-8.192-8.192-9.216-9.216-12.288-7.168-4.096 2.048-1.024 10.24 0 14.336 4.096 11.264 22.528 30.72 52.224 40.96 26.624 8.192 91.136 13.312 168.96-16.384 88.064-33.792 155.648-128 136.192-206.848-20.48-79.872-153.6-105.472-278.528-61.44-74.752 26.624-155.648 67.584-214.016 122.88-68.608 64.512-79.872 120.832-74.752 144.384 15.36 82.944 131.072 137.216 177.152 177.152-3.072 2.048-5.12 3.072-7.168 4.096-22.528 11.264-110.592 57.344-132.096 105.472-25.6 55.296 4.096 95.232 22.528 100.352 59.392 16.384 119.808-13.312 152.576-62.464 32.768-48.128 28.672-111.616 14.336-140.288l-1.024-1.024 18.432-11.264c11.264-6.144 22.528-13.312 32.768-18.432-5.12 15.36-9.216 33.792-11.264 60.416-3.072 30.72 10.24 71.68 26.624 87.04 7.168 7.168 16.384 7.168 21.504 7.168 19.456 0 28.672-16.384 38.912-34.816 11.264-23.552 22.528-51.2 22.528-51.2s-13.312 73.728 22.528 73.728c13.312 0 26.624-17.408 32.768-25.6 0 0 1.024-1.024 1.024-2.048 1.024-1.024 2.048-2.048 2.048-3.072v-1.024c5.12-9.216 17.408-29.696 34.816-64.512 23.552-45.056 45.056-101.376 45.056-101.376s2.048 13.312 9.216 35.84c3.072 14.336 12.288 28.672 18.432 43.008-5.12 7.168-8.192 11.264-8.192 11.264v1.024c-4.096 5.12-9.216 11.264-14.336 17.408-17.408 21.504-38.912 46.08-41.984 53.248-3.072 8.192-3.072 14.336 4.096 19.456 4.096 3.072 13.312 4.096 21.504 3.072 16.384-1.024 27.648-5.12 33.792-7.168 9.216-3.072 19.456-8.192 28.672-15.36 17.408-13.312 28.672-31.744 27.648-56.32-1.024-13.312-5.12-26.624-10.24-39.936 1.024-2.048 3.072-4.096 4.096-7.168 28.672-40.96 50.176-86.016 50.176-86.016s2.048 14.336 8.192 36.864c4.096 11.264 10.24 23.552 16.384 36.864-26.624 21.504-43.008 46.08-48.128 62.464-10.24 29.696-2.048 43.008 13.312 47.104 6.144 1.024 16.384-2.048 23.552-5.12 9.216-3.072 20.48-8.192 30.72-16.384 18.432-12.288 34.816-30.72 33.792-55.296 0-11.264-3.072-22.528-7.168-33.792 22.528-9.216 51.2-14.336 88.064-10.24 78.848 9.216 94.208 58.368 91.136 79.872-3.072 20.48-19.456 31.744-24.576 34.816-6.144 3.072-7.168 5.12-7.168 7.168 1.024 4.096 3.072 4.096 8.192 3.072 6.144-1.024 40.96-17.408 43.008-55.296 2.048-48.128-44.032-101.376-126.976-101.376zM233.472 761.856c-25.6 28.672-62.464 38.912-77.824 29.696-17.408-9.216-10.24-51.2 21.504-81.92 19.456-18.432 45.056-35.84 61.44-46.08 4.096-2.048 9.216-5.12 16.384-9.216 1.024-1.024 2.048-1.024 2.048-1.024 1.024-1.024 2.048-2.048 4.096-3.072 11.264 43.008 0 80.896-27.648 111.616zm190.464-130.048c-8.192 22.528-27.648 78.848-38.912 75.776-10.24-2.048-16.384-45.056-2.048-88.064 7.168-21.504 21.504-47.104 30.72-57.344 14.336-15.36 29.696-20.48 33.792-14.336 5.12 8.192-17.408 70.656-23.552 83.968zm157.696 75.776c-4.096 1.024-7.168 3.072-9.216 2.048-1.024-1.024 2.048-4.096 2.048-4.096s19.456-20.48 27.648-30.72c4.096-5.12 9.216-12.288 15.36-19.456v2.048c0 25.6-24.576 43.008-35.84 50.176zm120.832-27.648c-2.048-3.072-2.048-9.216 7.168-29.696 4.096-8.192 12.288-21.504 27.648-34.816 1.024 5.12 2.048 10.24 2.048 15.36 0 31.744-22.528 44.032-36.864 49.152z"/></svg>