<svg xmlns="http://www.w3.org/2000/svg" width="1024" height="1024"><path d="m270.336 305.152 78.848 269.312 79.872-269.312h214.016v26.624L562.176 471.04c28.672 9.216 50.176 25.6 64.512 50.176 14.336 23.552 21.504 52.224 21.504 83.968 0 40.96-10.24 73.728-31.744 101.376s-48.128 40.96-81.92 40.96c-25.6 0-48.128-8.192-66.56-24.576-19.456-16.384-33.792-37.888-41.984-65.536l44.032-18.432c7.168 16.384 15.36 29.696 26.624 39.936 10.24 9.216 22.528 14.336 37.888 14.336 14.336 0 27.648-9.216 37.888-25.6C583.68 650.24 588.8 629.76 588.8 605.184c0-26.624-6.144-47.104-17.408-61.44-12.288-16.384-33.792-25.6-61.44-25.6h-21.504v-25.6l75.776-132.096h-92.16l-5.12 8.192-111.616 378.88h-6.144l-81.92-274.432-80.896 274.432h-6.144L49.152 305.152h57.344l79.872 269.312 53.248-181.248-26.624-88.064h57.344zm670.72 0c-11.264 0-21.504 4.096-28.672 12.288-8.192 8.192-13.312 18.432-13.312 29.696s4.096 21.504 12.288 29.696 18.432 12.288 29.696 12.288c10.24 0 21.504-4.096 29.696-12.288s12.288-18.432 12.288-29.696c0-11.264-5.12-21.504-12.288-28.672-8.192-8.192-18.432-13.312-29.696-13.312zm35.84 41.984c0 10.24-3.072 19.456-10.24 25.6-7.168 7.168-16.384 10.24-25.6 10.24s-18.432-3.072-25.6-10.24c-7.168-7.168-11.264-16.384-11.264-25.6s4.096-18.432 11.264-25.6c7.168-7.168 15.36-10.24 25.6-10.24s18.432 3.072 25.6 10.24c7.168 7.168 10.24 16.384 10.24 25.6zM942.08 322.56h-17.408v47.104h8.192v-19.456h9.216l9.216 19.456h10.24l-10.24-21.504c6.144-1.024 10.24-5.12 10.24-12.288 0-8.192-6.144-13.312-19.456-13.312zm-2.048 6.144c9.216 0 12.288 2.048 12.288 8.192 0 5.12-3.072 7.168-11.264 7.168h-8.192v-15.36h7.168zm-69.632-25.6 9.216 56.32-32.768 62.464s-12.288-26.624-33.792-40.96c-17.408-12.288-28.672-15.36-47.104-11.264-22.528 4.096-49.152 31.744-60.416 66.56-13.312 39.936-13.312 60.416-14.336 77.824-1.024 29.696 4.096 46.08 4.096 46.08s-20.48-36.864-19.456-90.112c0-38.912 6.144-73.728 23.552-108.544 15.36-29.696 38.912-48.128 59.392-50.176 21.504-3.072 38.912 8.192 52.224 18.432 13.312 12.288 27.648 37.888 27.648 37.888l31.744-64.512zm4.096 319.488s-14.336 25.6-23.552 35.84-24.576 27.648-45.056 35.84c-19.456 9.216-30.72 11.264-50.176 9.216s-37.888-13.312-44.032-18.432c-7.168-5.12-23.552-18.432-32.768-31.744S655.36 614.4 655.36 614.4s8.192 25.6 13.312 36.864c3.072 6.144 11.264 25.6 24.576 43.008 11.264 16.384 34.816 43.008 69.632 49.152 34.816 7.168 59.392-9.216 64.512-13.312 6.144-3.072 18.432-13.312 26.624-22.528 8.192-8.192 16.384-19.456 20.48-26.624 3.072-5.12 8.192-15.36 8.192-15.36l-8.192-43.008z"/></svg>