<svg xmlns="http://www.w3.org/2000/svg" width="1024" height="1024"><path d="M72.704 512q0-93.184 37.888-179.2l209.92 574.464q-111.616-54.272-180.224-160.768T72.704 512zm736.256-22.528q0 11.264-2.048 22.528t-5.12 27.648-7.168 25.6-9.216 33.792-10.24 32.768L731.136 778.24l-158.72-472.064q26.624-2.048 50.176-4.096 11.264-2.048 15.36-11.264t-2.048-17.408-15.36-8.192l-117.76 6.144q-43.008-1.024-115.712-6.144-6.144 0-11.264 3.072t-6.144 9.216-1.024 10.24 5.12 9.216 11.264 5.12l45.056 4.096 68.608 187.392-96.256 287.744-159.744-475.136q26.624-2.048 50.176-4.096 11.264-2.048 15.36-11.264t-2.048-17.408-15.36-8.192l-117.76 6.144h-13.312q-9.216 0-14.336-1.024Q204.8 179.2 302.08 125.952T512 72.704q83.968 0 160.768 29.696t136.192 86.016h-6.144q-31.744 0-52.224 22.528t-21.504 54.272q0 7.168 1.024 14.336t2.048 12.288 5.12 13.312 5.12 11.264 7.168 13.312 7.168 12.288 8.192 13.312 8.192 13.312q35.84 61.44 35.84 120.832zm-289.792 60.416L655.36 919.552q0 4.096 2.048 7.168-71.68 24.576-145.408 24.576-63.488 0-123.904-18.432zm377.856-248.832Q951.296 400.384 951.296 512q0 119.808-59.392 220.16T732.16 891.904l135.168-388.096q33.792-96.256 33.792-157.696 0-23.552-4.096-45.056zM512 0q104.448 0 198.656 40.96t163.84 108.544 108.544 163.84T1024 512t-40.96 198.656-108.544 163.84-163.84 108.544T512 1024t-198.656-40.96-163.84-108.544T40.96 710.656 0 512t40.96-198.656 108.544-163.84T313.344 40.96 512 0zm0 1000.448q99.328 0 189.44-38.912t155.648-104.448T961.536 701.44 1000.448 512t-38.912-189.44-104.448-155.648T701.44 62.464 512 23.552 322.56 62.464 166.912 166.912 62.464 322.56 23.552 512t38.912 189.44 104.448 155.648T322.56 961.536 512 1000.448z"/></svg>